<svg width="40" height="40" viewBox="0 0 40 40" fill="none" xmlns="http://www.w3.org/2000/svg">
<g clip-path="url(#clip0_27_2085)">
<path d="M33.3332 18.3334C32.9256 15.4004 31.565 12.6828 29.4609 10.5992C27.3569 8.51557 24.6261 7.18155 21.6893 6.80261C18.7525 6.42366 15.7725 7.02082 13.2085 8.5021C10.6445 9.98337 8.63859 12.2666 7.49984 15M6.6665 8.33335V15H13.3332" stroke="black" stroke-width="2" stroke-linecap="round" stroke-linejoin="round"/>
<path d="M6.6665 21.6667C7.0741 24.5997 8.43472 27.3173 10.5388 29.4009C12.6428 31.4845 15.3736 32.8185 18.3104 33.1974C21.2472 33.5764 24.2271 32.9792 26.7912 31.4979C29.3552 30.0167 31.3611 27.7335 32.4998 25M33.3332 31.6667V25H26.6665" stroke="black" stroke-width="2" stroke-linecap="round" stroke-linejoin="round"/>
</g>
<defs>
<clipPath id="clip0_27_2085">
<rect width="40" height="40" fill="white"/>
</clipPath>
</defs>
</svg>
