<svg width="21" height="21" viewBox="0 0 21 21" fill="none" xmlns="http://www.w3.org/2000/svg">
<g clip-path="url(#clip0_456_2922)">
<path d="M10.0083 3.8332H4.17497C3.73294 3.8332 3.30902 4.00879 2.99646 4.32135C2.6839 4.63391 2.5083 5.05784 2.5083 5.49986V17.1665C2.5083 17.6086 2.6839 18.0325 2.99646 18.345C3.30902 18.6576 3.73294 18.8332 4.17497 18.8332H15.8416C16.2837 18.8332 16.7076 18.6576 17.0201 18.345C17.3327 18.0325 17.5083 17.6086 17.5083 17.1665V11.3332M16.2583 2.5832C16.5898 2.25168 17.0395 2.06543 17.5083 2.06543C17.9771 2.06543 18.4268 2.25168 18.7583 2.5832C19.0898 2.91472 19.2761 3.36436 19.2761 3.8332C19.2761 4.30204 19.0898 4.75168 18.7583 5.0832L10.8416 12.9999L7.5083 13.8332L8.34163 10.4999L16.2583 2.5832Z" stroke="#EC221F" stroke-width="2" stroke-linecap="round" stroke-linejoin="round"/>
</g>
<defs>
<clipPath id="clip0_456_2922">
<rect width="20" height="20" fill="white" transform="translate(0.841797 0.5)"/>
</clipPath>
</defs>
</svg>
